<mxfile host="Electron" agent="Mozilla/5.0 (Windows NT 10.0; Win64; x64) AppleWebKit/537.36 (KHTML, like Gecko) draw.io/24.7.17 Chrome/128.0.6613.36 Electron/32.0.1 Safari/537.36" version="24.7.17">
  <diagram id="C5RBs43oDa-KdzZeNtuy" name="Page-1">
    <mxGraphModel dx="656" dy="448" grid="1" gridSize="10" guides="1" tooltips="1" connect="1" arrows="1" fold="1" page="1" pageScale="1" pageWidth="827" pageHeight="1169" math="0" shadow="0">
      <root>
        <mxCell id="WIyWlLk6GJQsqaUBKTNV-0" />
        <mxCell id="WIyWlLk6GJQsqaUBKTNV-1" parent="WIyWlLk6GJQsqaUBKTNV-0" />
        <mxCell id="WIyWlLk6GJQsqaUBKTNV-2" value="Ja" style="rounded=0;html=1;jettySize=auto;orthogonalLoop=1;fontSize=11;endArrow=block;endFill=0;endSize=8;strokeWidth=1;shadow=0;labelBackgroundColor=none;edgeStyle=orthogonalEdgeStyle;labelPosition=center;verticalLabelPosition=top;align=center;verticalAlign=bottom;entryX=0.5;entryY=0;entryDx=0;entryDy=0;" parent="WIyWlLk6GJQsqaUBKTNV-1" source="WIyWlLk6GJQsqaUBKTNV-3" target="_wY8KXCuG9SI2cczP18m-5" edge="1">
          <mxGeometry relative="1" as="geometry" />
        </mxCell>
        <mxCell id="WIyWlLk6GJQsqaUBKTNV-3" value="Ist heute ein Schultag?" style="rounded=1;whiteSpace=wrap;html=1;fontSize=12;glass=0;strokeWidth=1;shadow=0;" parent="WIyWlLk6GJQsqaUBKTNV-1" vertex="1">
          <mxGeometry x="317.5" y="120" width="155" height="40" as="geometry" />
        </mxCell>
        <mxCell id="WIyWlLk6GJQsqaUBKTNV-5" value="Nein" style="edgeStyle=orthogonalEdgeStyle;rounded=0;html=1;jettySize=auto;orthogonalLoop=1;fontSize=11;endArrow=block;endFill=0;endSize=8;strokeWidth=1;shadow=0;labelBackgroundColor=none;labelPosition=center;verticalLabelPosition=top;align=center;verticalAlign=bottom;entryX=0;entryY=0.5;entryDx=0;entryDy=0;" parent="WIyWlLk6GJQsqaUBKTNV-1" source="WIyWlLk6GJQsqaUBKTNV-6" target="_wY8KXCuG9SI2cczP18m-22" edge="1">
          <mxGeometry y="10" relative="1" as="geometry">
            <mxPoint as="offset" />
            <mxPoint x="410" y="410" as="targetPoint" />
          </mxGeometry>
        </mxCell>
        <mxCell id="WIyWlLk6GJQsqaUBKTNV-6" value="Ist&lt;div&gt;Unterricht?&lt;/div&gt;" style="rhombus;whiteSpace=wrap;html=1;shadow=0;fontFamily=Helvetica;fontSize=12;align=center;strokeWidth=1;spacing=6;spacingTop=-4;" parent="WIyWlLk6GJQsqaUBKTNV-1" vertex="1">
          <mxGeometry x="144" y="370" width="100" height="80" as="geometry" />
        </mxCell>
        <mxCell id="WIyWlLk6GJQsqaUBKTNV-7" value="Pause machen ðŸ˜’" style="rounded=1;whiteSpace=wrap;html=1;fontSize=12;glass=0;strokeWidth=1;shadow=0;" parent="WIyWlLk6GJQsqaUBKTNV-1" vertex="1">
          <mxGeometry x="404" y="570" width="120" height="40" as="geometry" />
        </mxCell>
        <mxCell id="_wY8KXCuG9SI2cczP18m-2" style="edgeStyle=orthogonalEdgeStyle;rounded=0;orthogonalLoop=1;jettySize=auto;html=1;entryX=0.5;entryY=0;entryDx=0;entryDy=0;" edge="1" parent="WIyWlLk6GJQsqaUBKTNV-1" source="_wY8KXCuG9SI2cczP18m-0" target="WIyWlLk6GJQsqaUBKTNV-3">
          <mxGeometry relative="1" as="geometry" />
        </mxCell>
        <mxCell id="_wY8KXCuG9SI2cczP18m-0" value="Start" style="ellipse;whiteSpace=wrap;html=1;" vertex="1" parent="WIyWlLk6GJQsqaUBKTNV-1">
          <mxGeometry x="350" y="30" width="90" height="50" as="geometry" />
        </mxCell>
        <mxCell id="_wY8KXCuG9SI2cczP18m-1" value="&lt;font style=&quot;font-size: 22px;&quot;&gt;Ein Tag in der Schule:&lt;/font&gt;" style="text;html=1;align=center;verticalAlign=middle;whiteSpace=wrap;rounded=0;" vertex="1" parent="WIyWlLk6GJQsqaUBKTNV-1">
          <mxGeometry x="40" y="80" width="260" height="30" as="geometry" />
        </mxCell>
        <mxCell id="_wY8KXCuG9SI2cczP18m-3" value="Nein" style="edgeStyle=orthogonalEdgeStyle;rounded=0;html=1;jettySize=auto;orthogonalLoop=1;fontSize=11;endArrow=block;endFill=0;endSize=8;strokeWidth=1;shadow=0;labelBackgroundColor=none;exitX=1;exitY=0.5;exitDx=0;exitDy=0;entryX=0.5;entryY=0;entryDx=0;entryDy=0;align=left;" edge="1" parent="WIyWlLk6GJQsqaUBKTNV-1" source="WIyWlLk6GJQsqaUBKTNV-3" target="_wY8KXCuG9SI2cczP18m-13">
          <mxGeometry y="10" relative="1" as="geometry">
            <mxPoint as="offset" />
            <mxPoint x="490" y="150" as="sourcePoint" />
            <mxPoint x="525" y="250" as="targetPoint" />
          </mxGeometry>
        </mxCell>
        <mxCell id="_wY8KXCuG9SI2cczP18m-5" value="Anziehen" style="rounded=1;whiteSpace=wrap;html=1;fontSize=12;glass=0;strokeWidth=1;shadow=0;" vertex="1" parent="WIyWlLk6GJQsqaUBKTNV-1">
          <mxGeometry x="116.5" y="180" width="155" height="40" as="geometry" />
        </mxCell>
        <mxCell id="_wY8KXCuG9SI2cczP18m-6" value="FrÃ¼hstÃ¼cken" style="rounded=1;whiteSpace=wrap;html=1;fontSize=12;glass=0;strokeWidth=1;shadow=0;" vertex="1" parent="WIyWlLk6GJQsqaUBKTNV-1">
          <mxGeometry x="116.5" y="240" width="155" height="40" as="geometry" />
        </mxCell>
        <mxCell id="_wY8KXCuG9SI2cczP18m-8" value="Zur Schule laufen" style="rounded=1;whiteSpace=wrap;html=1;fontSize=12;glass=0;strokeWidth=1;shadow=0;" vertex="1" parent="WIyWlLk6GJQsqaUBKTNV-1">
          <mxGeometry x="116.5" y="300" width="155" height="40" as="geometry" />
        </mxCell>
        <mxCell id="_wY8KXCuG9SI2cczP18m-9" value="" style="rounded=0;html=1;jettySize=auto;orthogonalLoop=1;fontSize=11;endArrow=block;endFill=0;endSize=8;strokeWidth=1;shadow=0;labelBackgroundColor=none;edgeStyle=orthogonalEdgeStyle;exitX=0.5;exitY=1;exitDx=0;exitDy=0;entryX=0.5;entryY=0;entryDx=0;entryDy=0;" edge="1" parent="WIyWlLk6GJQsqaUBKTNV-1" source="_wY8KXCuG9SI2cczP18m-5" target="_wY8KXCuG9SI2cczP18m-6">
          <mxGeometry y="20" relative="1" as="geometry">
            <mxPoint as="offset" />
            <mxPoint x="204" y="550" as="sourcePoint" />
            <mxPoint x="190" y="270" as="targetPoint" />
          </mxGeometry>
        </mxCell>
        <mxCell id="_wY8KXCuG9SI2cczP18m-10" value="" style="rounded=0;html=1;jettySize=auto;orthogonalLoop=1;fontSize=11;endArrow=block;endFill=0;endSize=8;strokeWidth=1;shadow=0;labelBackgroundColor=none;edgeStyle=orthogonalEdgeStyle;entryX=0.5;entryY=0;entryDx=0;entryDy=0;exitX=0.5;exitY=1;exitDx=0;exitDy=0;" edge="1" parent="WIyWlLk6GJQsqaUBKTNV-1" source="_wY8KXCuG9SI2cczP18m-6" target="_wY8KXCuG9SI2cczP18m-8">
          <mxGeometry y="20" relative="1" as="geometry">
            <mxPoint as="offset" />
            <mxPoint x="190" y="300" as="sourcePoint" />
            <mxPoint x="204" y="270" as="targetPoint" />
          </mxGeometry>
        </mxCell>
        <mxCell id="_wY8KXCuG9SI2cczP18m-13" value="Ende" style="rounded=1;whiteSpace=wrap;html=1;fontSize=12;glass=0;strokeWidth=1;shadow=0;" vertex="1" parent="WIyWlLk6GJQsqaUBKTNV-1">
          <mxGeometry x="450" y="250" width="155" height="40" as="geometry" />
        </mxCell>
        <mxCell id="_wY8KXCuG9SI2cczP18m-16" value="" style="rounded=0;html=1;jettySize=auto;orthogonalLoop=1;fontSize=11;endArrow=block;endFill=0;endSize=8;strokeWidth=1;shadow=0;labelBackgroundColor=none;edgeStyle=orthogonalEdgeStyle;labelPosition=center;verticalLabelPosition=top;align=center;verticalAlign=bottom;entryX=0.5;entryY=0;entryDx=0;entryDy=0;exitX=0.5;exitY=1;exitDx=0;exitDy=0;" edge="1" parent="WIyWlLk6GJQsqaUBKTNV-1" source="_wY8KXCuG9SI2cczP18m-8" target="WIyWlLk6GJQsqaUBKTNV-6">
          <mxGeometry relative="1" as="geometry">
            <mxPoint x="328" y="150" as="sourcePoint" />
            <mxPoint x="204" y="190" as="targetPoint" />
          </mxGeometry>
        </mxCell>
        <mxCell id="_wY8KXCuG9SI2cczP18m-17" value="Aufpassen ðŸ¥³" style="rounded=1;whiteSpace=wrap;html=1;fontSize=12;glass=0;strokeWidth=1;shadow=0;" vertex="1" parent="WIyWlLk6GJQsqaUBKTNV-1">
          <mxGeometry x="134" y="490" width="120" height="40" as="geometry" />
        </mxCell>
        <mxCell id="_wY8KXCuG9SI2cczP18m-18" value="Mitschreiben ðŸ˜Š" style="rounded=1;whiteSpace=wrap;html=1;fontSize=12;glass=0;strokeWidth=1;shadow=0;" vertex="1" parent="WIyWlLk6GJQsqaUBKTNV-1">
          <mxGeometry x="134" y="560" width="120" height="40" as="geometry" />
        </mxCell>
        <mxCell id="_wY8KXCuG9SI2cczP18m-19" value="Ja" style="rounded=0;html=1;jettySize=auto;orthogonalLoop=1;fontSize=11;endArrow=block;endFill=0;endSize=8;strokeWidth=1;shadow=0;labelBackgroundColor=none;edgeStyle=orthogonalEdgeStyle;labelPosition=left;verticalLabelPosition=middle;align=right;verticalAlign=middle;entryX=0.5;entryY=0;entryDx=0;entryDy=0;exitX=0.5;exitY=1;exitDx=0;exitDy=0;textDirection=ltr;" edge="1" parent="WIyWlLk6GJQsqaUBKTNV-1" source="WIyWlLk6GJQsqaUBKTNV-6" target="_wY8KXCuG9SI2cczP18m-17">
          <mxGeometry y="-4" relative="1" as="geometry">
            <mxPoint x="240" y="460" as="sourcePoint" />
            <mxPoint x="204" y="190" as="targetPoint" />
            <mxPoint as="offset" />
          </mxGeometry>
        </mxCell>
        <mxCell id="_wY8KXCuG9SI2cczP18m-20" value="" style="rounded=0;html=1;jettySize=auto;orthogonalLoop=1;fontSize=11;endArrow=block;endFill=0;endSize=8;strokeWidth=1;shadow=0;labelBackgroundColor=none;edgeStyle=orthogonalEdgeStyle;labelPosition=left;verticalLabelPosition=middle;align=right;verticalAlign=middle;entryX=0.5;entryY=0;entryDx=0;entryDy=0;exitX=0.5;exitY=1;exitDx=0;exitDy=0;textDirection=ltr;" edge="1" parent="WIyWlLk6GJQsqaUBKTNV-1" source="_wY8KXCuG9SI2cczP18m-17" target="_wY8KXCuG9SI2cczP18m-18">
          <mxGeometry y="-4" relative="1" as="geometry">
            <mxPoint x="204" y="460" as="sourcePoint" />
            <mxPoint x="204" y="500" as="targetPoint" />
            <mxPoint as="offset" />
          </mxGeometry>
        </mxCell>
        <mxCell id="_wY8KXCuG9SI2cczP18m-21" value="" style="rounded=0;html=1;jettySize=auto;orthogonalLoop=1;fontSize=11;endArrow=block;endFill=0;endSize=8;strokeWidth=1;shadow=0;labelBackgroundColor=none;edgeStyle=orthogonalEdgeStyle;labelPosition=left;verticalLabelPosition=middle;align=right;verticalAlign=middle;exitX=0.5;exitY=1;exitDx=0;exitDy=0;textDirection=ltr;entryX=0;entryY=0.5;entryDx=0;entryDy=0;" edge="1" parent="WIyWlLk6GJQsqaUBKTNV-1" source="_wY8KXCuG9SI2cczP18m-18" target="WIyWlLk6GJQsqaUBKTNV-6">
          <mxGeometry y="-4" relative="1" as="geometry">
            <mxPoint x="204" y="540" as="sourcePoint" />
            <mxPoint x="194" y="660" as="targetPoint" />
            <mxPoint as="offset" />
            <Array as="points">
              <mxPoint x="194" y="620" />
              <mxPoint x="90" y="620" />
              <mxPoint x="90" y="410" />
            </Array>
          </mxGeometry>
        </mxCell>
        <mxCell id="_wY8KXCuG9SI2cczP18m-22" value="Ist&lt;div&gt;Schule&lt;/div&gt;&lt;div&gt;aus?&lt;/div&gt;" style="rhombus;whiteSpace=wrap;html=1;shadow=0;fontFamily=Helvetica;fontSize=12;align=center;strokeWidth=1;spacing=6;spacingTop=-4;" vertex="1" parent="WIyWlLk6GJQsqaUBKTNV-1">
          <mxGeometry x="414" y="370" width="100" height="80" as="geometry" />
        </mxCell>
        <mxCell id="_wY8KXCuG9SI2cczP18m-24" value="Start" style="ellipse;whiteSpace=wrap;html=1;" vertex="1" parent="WIyWlLk6GJQsqaUBKTNV-1">
          <mxGeometry x="590" y="530" width="90" height="50" as="geometry" />
        </mxCell>
        <mxCell id="_wY8KXCuG9SI2cczP18m-25" value="Nein" style="edgeStyle=orthogonalEdgeStyle;rounded=0;html=1;jettySize=auto;orthogonalLoop=1;fontSize=11;endArrow=block;endFill=0;endSize=8;strokeWidth=1;shadow=0;labelBackgroundColor=none;labelPosition=center;verticalLabelPosition=top;align=center;verticalAlign=bottom;entryX=0.5;entryY=0;entryDx=0;entryDy=0;" edge="1" parent="WIyWlLk6GJQsqaUBKTNV-1" target="_wY8KXCuG9SI2cczP18m-24">
          <mxGeometry x="0.129" y="15" relative="1" as="geometry">
            <mxPoint as="offset" />
            <mxPoint x="514" y="409.7" as="sourcePoint" />
            <mxPoint x="680" y="409.7" as="targetPoint" />
            <Array as="points">
              <mxPoint x="635" y="410" />
            </Array>
          </mxGeometry>
        </mxCell>
        <mxCell id="_wY8KXCuG9SI2cczP18m-28" value="" style="rounded=0;html=1;jettySize=auto;orthogonalLoop=1;fontSize=11;endArrow=block;endFill=0;endSize=8;strokeWidth=1;shadow=0;labelBackgroundColor=none;edgeStyle=orthogonalEdgeStyle;labelPosition=left;verticalLabelPosition=middle;align=right;verticalAlign=middle;exitX=0.5;exitY=1;exitDx=0;exitDy=0;textDirection=ltr;entryX=0;entryY=0.5;entryDx=0;entryDy=0;" edge="1" parent="WIyWlLk6GJQsqaUBKTNV-1" source="WIyWlLk6GJQsqaUBKTNV-7" target="_wY8KXCuG9SI2cczP18m-8">
          <mxGeometry y="-4" relative="1" as="geometry">
            <mxPoint x="204" y="460" as="sourcePoint" />
            <mxPoint x="50" y="400" as="targetPoint" />
            <mxPoint as="offset" />
            <Array as="points">
              <mxPoint x="464" y="640" />
              <mxPoint x="70" y="640" />
              <mxPoint x="70" y="320" />
            </Array>
          </mxGeometry>
        </mxCell>
        <mxCell id="_wY8KXCuG9SI2cczP18m-29" value="Ja" style="rounded=0;html=1;jettySize=auto;orthogonalLoop=1;fontSize=11;endArrow=block;endFill=0;endSize=8;strokeWidth=1;shadow=0;labelBackgroundColor=none;edgeStyle=orthogonalEdgeStyle;labelPosition=left;verticalLabelPosition=middle;align=right;verticalAlign=middle;entryX=0.5;entryY=0;entryDx=0;entryDy=0;exitX=0.5;exitY=1;exitDx=0;exitDy=0;textDirection=ltr;" edge="1" parent="WIyWlLk6GJQsqaUBKTNV-1" source="_wY8KXCuG9SI2cczP18m-22" target="WIyWlLk6GJQsqaUBKTNV-7">
          <mxGeometry y="-4" relative="1" as="geometry">
            <mxPoint x="214" y="470" as="sourcePoint" />
            <mxPoint x="214" y="510" as="targetPoint" />
            <mxPoint as="offset" />
          </mxGeometry>
        </mxCell>
      </root>
    </mxGraphModel>
  </diagram>
</mxfile>
